<svg xmlns="http://www.w3.org/2000/svg" viewBox="0 0 145.7 75.14"><title>Asset 3</title><g id="Layer_2" data-name="Layer 2"><g id="Layer_1-2" data-name="Layer 1"><path d="M15.67,11Q8.76,38.1.25,64.75l14.46,4a129.32,129.32,0,0,1,11-29.86A132.54,132.54,0,0,1,33.5,25.8c2.4-3.56,5.86-10.13,9.8-11.84l-3.78,1,1.28,0L37,14q-1.62-3.73-1.33-.91c-.07,1.25-.15,2.5-.26,3.75-.16,1.82-.35,3.65-.61,5.46-.6,4.34-1.47,8.65-2.45,12.91-1.95,8.58-4.44,17-6.93,25.45-2.81,9.48,11,12.71,14.46,4A132.61,132.61,0,0,1,70.13,19.69L57.6,16.38C59.83,27,54,38.05,52.74,48.47s2.54,22.77,15.1,23C78.07,71.68,87,64.36,94,57.71A87.11,87.11,0,0,0,112.21,33c4.15-8.48,10.35-23.38-2.65-27.66C100.1,2.26,89.41,9.84,83.78,16.81a35.69,35.69,0,0,0,6.65,51.64C110,82.88,137,72.61,145.19,50.64c3.37-9.06-11.12-13-14.46-4-4,10.67-17.1,16.71-27.6,12S87.45,41.82,92.24,31.27a23,23,0,0,1,5-7c2-1.93,4.67-2.62,6.69-4.25,1-.83,2.46.7-.06-1.51-2.32-2-.8-1.14-1.72.12-.75,1-1,2.81-1.54,4a73.65,73.65,0,0,1-5.09,9.67A73.59,73.59,0,0,1,82.83,47.64a59.54,59.54,0,0,1-7,5.7c-1.35.91-6.14,4.29-8,3.14-1-.59-.39-5.61-.21-7a103.69,103.69,0,0,1,2.75-12.09c2.12-8.32,3.48-16.47,1.68-25-1.2-5.66-8.71-7.08-12.53-3.31A150.12,150.12,0,0,0,25.44,60.64l14.46,4c3.91-13.23,7.75-26.51,9.65-40.21.77-5.6,2.21-12.17.14-17.62A10.26,10.26,0,0,0,35.13,1.27C30.2,4,26.71,9.64,23.46,14.07a135.21,135.21,0,0,0-9.92,15.74A144.75,144.75,0,0,0,.25,64.75c-2.25,9.41,11.53,13.18,14.46,4Q23.21,42.09,30.13,15c2.39-9.36-12.07-13.35-14.46-4Z"/></g></g></svg>