<svg xmlns="http://www.w3.org/2000/svg" viewBox="0 0 144.79 86.45"><title>Asset 1</title><g id="Layer_2" data-name="Layer 2"><g id="Layer_1-2" data-name="Layer 1"><path d="M50,60.5a94,94,0,0,0-18.66-11C28.15,48.08,25,46.79,21.7,45.7c-2.89-1-7.57-1.27-10-2.87l3.45,4.49-.39-1v4c-1.49,3.69.81.3,2-.68,1.41-1.15,2.83-2.3,4.25-3.43,3.07-2.44,6.2-4.8,9.36-7.12,6.14-4.48,12.43-8.73,18.84-12.81,8.12-5.17.6-18.16-7.57-12.95S25.4,24.08,17.65,30c-3.41,2.6-6.79,5.23-10.12,7.93S0,43.46,0,48.33c0,9.58,12.64,10,19.3,12.38A86.64,86.64,0,0,1,42.38,73.45c3.26,2.46,8.35.49,10.26-2.69,2.28-3.82.53-7.84-2.69-10.26Z"/><path d="M70.68,81.27Q82.85,45,97,9.52c1.51-3.79-1.66-8.2-5.24-9.23C87.5-.92,84,1.79,82.53,5.53Q68.38,41,56.22,77.28c-3.08,9.18,11.4,13.11,14.46,4Z"/><path d="M104.9,75A282.53,282.53,0,0,0,142.6,45.1c4.21-4,2-11-3.31-12.54a100.84,100.84,0,0,1-31.8-16.08C104.21,14,99.14,16,97.22,19.17,95,23,96.69,27,99.92,29.43A112.68,112.68,0,0,0,135.3,47L132,34.49A257.91,257.91,0,0,1,97.33,62c-8,5.31-.51,18.31,7.57,13Z"/></g></g></svg>