<svg xmlns="http://www.w3.org/2000/svg" viewBox="0 0 22.07 23.73"><title>Asset 1</title><g id="Layer_2" data-name="Layer 2"><g id="Layer_1-2" data-name="Layer 1"><path d="M15.48,9.16C12.11,3,4.76,9.15,5.69,14.52c.45,2.62,2.74,3.64,5.13,2.53,3.1-1.45,3.79-5.31,5-8.17l-2.89-.8c-.54,2.37-.93,6.1,1.33,7.76,2.42,1.78,5.75-.36,7-2.63C24.38,7.19,18.36-.06,12.1,0,.55.11-5.27,18.85,6.28,23.61c1.78.74,2.56-2.16.8-2.89-7.2-3-4.11-12.55.84-16.16A6.59,6.59,0,0,1,16.75,5c1.85,1.7,3.18,4.67,1.58,7-2.56,3.72-3-1.12-2.55-3.11a1.5,1.5,0,0,0-2.89-.8c-.49,1.2-1.28,5.26-2.65,5.78-3.49,1.32.26-7.52,2.65-3.19.93,1.7,3.52.18,2.59-1.51Z"/></g></g></svg>