<svg xmlns="http://www.w3.org/2000/svg" viewBox="0 0 34.42 15.07"><title>cv</title><g id="Layer_2" data-name="Layer 2"><g id="Layer_1-2" data-name="Layer 1"><path d="M10.69.13C5.34-.21,1.58,1.39.28,6.94c-.67,2.84-.29,6.79,3,7.86C9.49,16.87,15.51,6.13,18.51,2.21l-2.74-.36c.5,2.66-6.07,12.6.09,13.14,4.88.42,8.54-9.46,10.84-12.53L24,2.1c.8,4.95,6.05,3.42,9.43,2.25,1.82-.63,1-3.53-.79-2.89-1.4.48-5.33,2.39-5.74-.16C26.62-.12,24.79.05,24.11,1c-1.24,1.65-5.67,10.92-7.6,10.53C16.12,11.4,19,2.6,18.66,1.05s-2-1.26-2.74-.35a88.21,88.21,0,0,1-6.36,8c-1,1-2.83,3.17-4.39,3.27C2.55,12.08,2.67,8,3.54,6.48,5.05,3.78,8,3,10.69,3.13c1.93.12,1.92-2.88,0-3Z"/></g></g></svg>