<svg xmlns="http://www.w3.org/2000/svg" viewBox="0 0 133.88 73.78"><title>Asset 4</title><g id="Layer_2" data-name="Layer 2"><g id="Layer_1-2" data-name="Layer 1"><path d="M52,.72C35.07-2.7,20.52,6.48,11.06,19.92,2.36,32.3-5.14,50.58,4.56,64.49c10.5,15.05,29.75,9.86,40.58-1.77,12.17-13.06,22.25-28.9,31.63-44l-14-3.78c-.09,11.78-.21,23.56-.26,35.34,0,8.87,3.23,20.65,14.61,19.07,5.07-.7,8.53-4.41,11.24-8.46,3.26-4.85,6.17-10,9.23-15l19.21-31.24-14-3.78c.53,16.32,22,22.45,30.05,7.57,4.58-8.5-8.36-16.08-13-7.57-.67,1.24-2,2.11-2.1,0-.24-7.44-10-10.2-14-3.79C94.71,22,85.65,37,76.36,51.84c-.42.69-.86,1.38-1.31,2.06q-2.43,2,2.85,1.7c.22-.39-.31-1.63-.35-2.17-.34-4,0-8,0-12l.2-26.51c0-7.6-10.13-10-14-3.79C57,22.2,49.6,33,41.69,43.34c-4.11,5.39-15.2,21.53-23.61,14.07-7.83-7,0-20.54,4.16-27.24C27.65,21.56,37,13,48,15.18,57.39,17.09,61.42,2.63,52,.72Z"/></g></g></svg>