<svg xmlns="http://www.w3.org/2000/svg" viewBox="0 0 402.13 246.01"><defs><style>.cls-1{stroke:#000;stroke-linecap:round;stroke-linejoin:round;stroke-width:5px;}</style></defs><title>adjAsset 3</title><g id="Layer_2" data-name="Layer 2"><g id="Layer_1-2" data-name="Layer 1"><g id="Layer_2-2" data-name="Layer 2"><g id="Layer_1-2-2" data-name="Layer 1-2"><g id="Layer_2-2-2" data-name="Layer 2-2"><g id="Layer_1-2-2-2" data-name="Layer 1-2-2"><path class="cls-1" d="M18.65,209.09c30-35.21,61.88-69.2,97.31-99.07,15.87-13.36,33.4-26,53.46-32.13,7.93-2.41,16.56-4.28,24.77-2.14,9.39,2.45,10.14,9.28,8.57,18.1a223.1,223.1,0,0,1-26.49,71.62c-6.22,10.85,10.54,20.69,16.75,9.79a245.63,245.63,0,0,0,27.76-72.81c2.47-12.13,4-25.09-4.53-35.24-6.67-7.9-17-11-27-11.64-22.58-1.42-46,10.64-64.1,23.08-20.94,14.37-39.84,32-58,49.66C45.28,149.6,24.73,172.17,5,195.38-3.12,204.83,10.53,218.65,18.65,209.09Z"/><path class="cls-1" d="M124.93,124.81A529.75,529.75,0,0,1,124.61,233c-1.32,12.42,18,14.58,19.26,2.2a553.33,553.33,0,0,0,.21-113.42C142.85,109.36,123.7,112.45,124.93,124.81Z"/><path class="cls-1" d="M231.48,48.49A187.35,187.35,0,0,1,234,153.2c-3.2,12.08,15.52,17.24,18.71,5.18a206.84,206.84,0,0,0-2.52-115.06C246.43,31.45,227.71,36.51,231.48,48.49Z"/><path class="cls-1" d="M316.86,7.84Q300.72,41.5,286.54,76c-4.42,10.73-8.75,21.52-12.77,32.4-1.9,5.13-3.91,10.71-1.62,16.13a13.31,13.31,0,0,0,11.11,7.88c5.24.46,9.44-2,13.82-4.54,5.29-3,10.49-6.3,15.7-9.45,9.11-5.59,18.19-11.27,27.54-16.48A202.51,202.51,0,0,1,371,87.8q3.76-1.33,7.54-2.44c1.08-.34,2.19-.65,3.28-.94,2.59-.19,2.13-1.38-1.5-3.55-1.93.69-3.87,10.28-4.16,12.13-1.94,12.35,17.22,15.51,19.14,3.19.85-5.51,4.44-9.85,4.31-15.77s-2.91-11.76-8.47-14.35c-6-2.84-12.56-.83-18.6.94a159.12,159.12,0,0,0-19.15,6.93A310.86,310.86,0,0,0,318,92.81C312,96.32,306.18,100,300.3,103.55c-2.92,1.79-5.85,3.63-8.82,5.35l-3.92,2.33c-.86.52-1.71,1-2.58,1.5-2.4,1.11-.77,2.22,4.89,3.3l.55,5.19c.12-4,2.28-8,3.71-11.71q2.7-7,5.45-13.9,5.28-13.31,10.9-26.45Q322,42.24,334.58,15.93c5.4-11.3-12.29-19.24-17.74-8Z"/></g></g></g></g></g></g></svg>