<svg xmlns="http://www.w3.org/2000/svg" viewBox="0 0 418.88 218.6"><defs><style>.cls-1{stroke:#000;stroke-linecap:round;stroke-linejoin:round;stroke-width:8px;}</style></defs><title>adj-sig-2</title><g id="Layer_2" data-name="Layer 2"><g id="Layer_1-2" data-name="Layer 1"><g id="Layer_2-2" data-name="Layer 2"><g id="Layer_1-2-2" data-name="Layer 1-2"><g id="Layer_2-2-2" data-name="Layer 2-2"><g id="Layer_1-2-2-2" data-name="Layer 1-2-2"><g id="Layer_2-2-2-2" data-name="Layer 2-2-2"><g id="Layer_1-2-2-2-2" data-name="Layer 1-2-2-2"><path class="cls-1" d="M19,163.47C53.85,133,90.37,104.1,129.8,79.75c17.66-10.88,36.85-20.82,57.59-23.94,8.2-1.22,17-1.8,24.82,1.52,8.93,3.8,8.67,10.67,5.82,19.16a223.12,223.12,0,0,1-36.71,67c-7.75,9.82,7.39,22,15.13,12.14a245.33,245.33,0,0,0,38.14-67.94c4.23-11.64,7.64-24.24.69-35.53-5.43-8.79-15.2-13.37-25-15.47-22.13-4.72-47.07,3.77-66.8,13.42-22.82,11.14-44.1,25.81-64.66,40.61C54.08,108.53,30.44,127.84,7.51,147.9-1.91,156.06,9.57,171.73,19,163.47Z"/><path class="cls-1" d="M136.5,95.7a529.88,529.88,0,0,1-16.19,107c-3.13,12.09,15.66,17.06,18.73,5A553.52,553.52,0,0,0,155.89,95.51C156.49,83.05,137.1,83.29,136.5,95.7Z"/><path class="cls-1" d="M253.1,35.84a187.32,187.32,0,0,1-12.88,104c-4.93,11.48,12.83,19.33,17.75,7.87A206.9,206.9,0,0,0,272.36,33.47C270.39,21.18,251.13,23.44,253.1,35.84Z"/><path class="cls-1" d="M343.52,8.16q-20.91,30.93-40,63c-5.94,10-11.81,20-17.38,30.18-2.63,4.79-5.44,10-4,15.72a13.31,13.31,0,0,0,9.83,9.42c5.12,1.22,9.63-.59,14.34-2.46,5.67-2.19,11.3-4.7,16.91-7,9.84-4.19,19.65-8.48,29.67-12.26a201.7,201.7,0,0,1,32.42-9.48q3.92-.77,7.81-1.31c1.12-.18,2.27-.32,3.39-.45,2.59.19,2.31-1-1-3.73-2,.4-5.33,9.6-5.89,11.39-3.73,11.93,14.76,17.87,18.46,6,1.65-5.32,5.84-9.09,6.58-15S413.57,80,408.45,76.66c-5.52-3.69-12.3-2.66-18.54-1.8a159.64,159.64,0,0,0-20,4,311.88,311.88,0,0,0-37.77,13.48c-6.45,2.59-12.75,5.37-19.09,8-3.15,1.35-6.32,2.74-9.51,4l-4.22,1.73c-.92.39-1.84.74-2.77,1.11-2.54.74-1.09,2.08,4.35,4l-.21,5.21c.7-3.94,3.43-7.58,5.38-11q3.7-6.52,7.43-13,7.18-12.39,14.67-24.56,15.35-24.94,31.65-49.12c7-10.38-9.33-20.83-16.38-10.51Z"/></g></g></g></g></g></g></g></g></svg>