<svg xmlns="http://www.w3.org/2000/svg" viewBox="0 0 405.17 224.78"><defs><style>.cls-1{stroke:#000;stroke-linecap:round;stroke-linejoin:round;stroke-width:5px;}</style></defs><title>Asset 1</title><g id="Layer_2" data-name="Layer 2"><g id="Layer_1-2" data-name="Layer 1"><g id="Layer_2-2" data-name="Layer 2"><g id="Layer_1-2-2" data-name="Layer 1-2"><path class="cls-1" d="M18.67,209.49c30-35.21,61.88-69.2,97.31-99.07,15.87-13.36,33.4-26,53.46-32.13,7.93-2.41,16.56-4.28,24.77-2.14,9.39,2.45,10.14,9.28,8.57,18.1a223.1,223.1,0,0,1-26.49,71.62c-6.22,10.85,10.54,20.69,16.75,9.79a245.63,245.63,0,0,0,27.76-72.81c2.47-12.13,4-25.09-4.53-35.24-6.67-7.9-17-11-27-11.64-22.58-1.42-46,10.64-64.1,23.08-20.94,14.37-39.84,32-58,49.66C45.3,150,24.75,172.57,5,195.78-3.1,205.23,10.55,219.05,18.67,209.49Z"/><path class="cls-1" d="M145.47,103.4a529.43,529.43,0,0,1-17.18,106.86c-3.23,12.06,15.51,17.2,18.69,5.17a553.74,553.74,0,0,0,17.88-112C165.58,90.93,146.18,91,145.47,103.4Z"/><path class="cls-1" d="M231.5,48.89A187.35,187.35,0,0,1,234,153.6c-3.2,12.08,15.52,17.24,18.71,5.18a206.84,206.84,0,0,0-2.52-115.06C246.45,31.85,227.73,36.91,231.5,48.89Z"/><path class="cls-1" d="M327.9,7q-19.57,31.8-37.28,64.65c-5.51,10.21-10.94,20.49-16.08,30.89-2.42,4.9-5,10.24-3.29,15.87a13.31,13.31,0,0,0,10.22,9c5.17,1,9.6-1,14.22-3.08,5.58-2.48,11.09-5.17,16.6-7.76,9.65-4.6,19.27-9.31,29.11-13.51a202.73,202.73,0,0,1,32-10.88c2.59-.62,5.17-1.17,7.76-1.64,1.11-.22,2.24-.42,3.36-.59,2.59.08,2.26-1.15-1.12-3.69-2,.49-4.93,9.82-5.41,11.63-3.22,12.08,15.51,17.22,18.7,5.17,1.43-5.39,5.45-9.33,5.94-15.23s-1.67-12-6.93-15.16c-5.72-3.45-12.4-2.13-18.59-1a158.07,158.07,0,0,0-19.77,4.89,310,310,0,0,0-37.23,15.06c-6.26,2.88-12.45,5.88-18.67,8.84-3.1,1.48-6.2,3-9.33,4.4l-4.15,1.91c-.91.43-1.8.83-2.72,1.22q-3.76,1.29,4.52,3.8V117c.55-4,3.1-7.68,4.92-11.25q3.41-6.65,6.87-13.26,6.64-12.68,13.6-25.17,14.22-25.57,29.53-50.42c6.55-10.67-10.22-20.42-16.81-9.79Z"/></g></g></g></g></svg>